# 3ds Max Wavefront OBJ Exporter v0.97b - (c)2007 guruware
# File Created: 05.02.2017 15:02:14

mtllib Bulb_Base.mtl

#
# object Bulb_Base
#

v  0.0346 0.2093 0.0039
v  0.0320 0.2093 -0.0093
v  0.0320 0.2191 -0.0093
v  0.0346 0.2191 0.0039
v  0.0245 0.2093 -0.0206
v  0.0245 0.2191 -0.0206
v  0.0133 0.2093 -0.0281
v  0.0133 0.2191 -0.0281
v  0.0000 0.2093 -0.0307
v  0.0000 0.2191 -0.0307
v  -0.0132 0.2093 -0.0281
v  -0.0132 0.2191 -0.0281
v  -0.0245 0.2093 -0.0206
v  -0.0245 0.2191 -0.0206
v  -0.0320 0.2093 -0.0093
v  -0.0320 0.2191 -0.0093
v  -0.0346 0.2093 0.0039
v  -0.0346 0.2191 0.0039
v  -0.0320 0.2093 0.0172
v  -0.0320 0.2191 0.0172
v  -0.0245 0.2093 0.0284
v  -0.0245 0.2191 0.0284
v  -0.0132 0.2093 0.0359
v  -0.0132 0.2191 0.0359
v  0.0000 0.2093 0.0385
v  0.0000 0.2191 0.0385
v  0.0133 0.2093 0.0359
v  0.0133 0.2191 0.0359
v  0.0245 0.2093 0.0284
v  0.0245 0.2191 0.0284
v  0.0320 0.2093 0.0172
v  0.0320 0.2191 0.0172
v  0.0160 0.2191 -0.0027
v  0.0173 0.2191 0.0039
v  0.0122 0.2191 -0.0083
v  0.0066 0.2191 -0.0121
v  0.0000 0.2191 -0.0134
v  -0.0066 0.2191 -0.0121
v  -0.0122 0.2191 -0.0083
v  -0.0160 0.2191 -0.0027
v  -0.0173 0.2191 0.0039
v  -0.0160 0.2191 0.0105
v  -0.0122 0.2191 0.0162
v  -0.0066 0.2191 0.0199
v  0.0000 0.2191 0.0212
v  0.0066 0.2191 0.0199
v  0.0122 0.2191 0.0162
v  0.0160 0.2191 0.0105
v  0.0000 0.2191 0.0039
v  0.0439 0.2093 0.0039
v  0.0406 0.2093 -0.0129
v  0.0311 0.2093 -0.0271
v  0.0168 0.2093 -0.0366
v  0.0000 0.2093 -0.0400
v  -0.0168 0.2093 -0.0366
v  -0.0310 0.2093 -0.0271
v  -0.0406 0.2093 -0.0129
v  -0.0439 0.2093 0.0039
v  -0.0406 0.2093 0.0207
v  -0.0310 0.2093 0.0350
v  -0.0168 0.2093 0.0445
v  0.0000 0.2093 0.0478
v  0.0168 0.2093 0.0445
v  0.0311 0.2093 0.0350
v  0.0406 0.2093 0.0207
v  0.0439 0.1999 0.0039
v  0.0406 0.1999 -0.0129
v  0.0311 0.1999 -0.0271
v  0.0168 0.1999 -0.0366
v  0.0000 0.1999 -0.0400
v  -0.0168 0.1999 -0.0366
v  -0.0310 0.1999 -0.0271
v  -0.0406 0.1999 -0.0129
v  -0.0439 0.1999 0.0039
v  -0.0406 0.1999 0.0207
v  -0.0310 0.1999 0.0350
v  -0.0168 0.1999 0.0445
v  0.0000 0.1999 0.0478
v  0.0168 0.1999 0.0445
v  0.0311 0.1999 0.0350
v  0.0406 0.1999 0.0207
# 81 vertices

vn 1.0000 0.0000 -0.0000
vn 0.9239 0.0000 -0.3827
vn 0.7071 0.0000 -0.7071
vn 0.3827 0.0000 -0.9239
vn 0.0000 0.0000 -1.0000
vn -0.0000 0.0000 -1.0000
vn -0.3827 0.0000 -0.9239
vn -0.7071 0.0000 -0.7071
vn -0.9239 0.0000 -0.3827
vn -1.0000 0.0000 -0.0000
vn -0.9239 0.0000 0.3827
vn -0.7071 0.0000 0.7071
vn -0.3827 0.0000 0.9239
vn -0.0000 0.0000 1.0000
vn 0.3827 0.0000 0.9239
vn 0.7071 0.0000 0.7071
vn 0.9239 0.0000 0.3827
vn 0.0000 1.0000 -0.0000
vn -0.0000 1.0000 0.0000
vn 0.0000 1.0000 0.0000
vn -0.0000 1.0000 -0.0000
# 21 vertex normals

vt 0.7500 0.5000 1.0000
vt 0.8125 0.5000 1.0000
vt 0.8125 1.0000 1.0000
vt 0.7500 1.0000 1.0000
vt 0.8750 0.5000 1.0000
vt 0.8750 1.0000 1.0000
vt 0.9375 0.5000 1.0000
vt 0.9375 1.0000 1.0000
vt 1.0000 0.5000 1.0000
vt 1.0000 1.0000 1.0000
vt 0.0000 0.5000 1.0000
vt 0.0625 0.5000 1.0000
vt 0.0625 1.0000 1.0000
vt 0.0000 1.0000 1.0000
vt 0.1250 0.5000 1.0000
vt 0.1250 1.0000 1.0000
vt 0.1875 0.5000 1.0000
vt 0.1875 1.0000 1.0000
vt 0.2500 0.5000 1.0000
vt 0.2500 1.0000 1.0000
vt 0.3125 0.5000 1.0000
vt 0.3125 1.0000 1.0000
vt 0.3750 0.5000 1.0000
vt 0.3750 1.0000 1.0000
vt 0.4375 0.5000 1.0000
vt 0.4375 1.0000 1.0000
vt 0.5000 0.5000 1.0000
vt 0.5000 1.0000 1.0000
vt 0.5625 0.5000 1.0000
vt 0.5625 1.0000 1.0000
vt 0.6250 0.5000 1.0000
vt 0.6250 1.0000 1.0000
vt 0.6875 0.5000 1.0000
vt 0.6875 1.0000 1.0000
vt 0.5000 1.0000 0.2500
vt 0.3087 0.9619 0.2500
vt 0.4043 0.7310 0.2500
vt 0.5000 0.7500 0.2500
vt 0.1464 0.8536 0.2500
vt 0.3232 0.6768 0.2500
vt 0.0381 0.6913 0.2500
vt 0.2690 0.5957 0.2500
vt 0.0000 0.5000 0.2500
vt 0.2500 0.5000 0.2500
vt 0.0381 0.3087 0.2500
vt 0.2690 0.4043 0.2500
vt 0.1464 0.1464 0.2500
vt 0.3232 0.3232 0.2500
vt 0.3087 0.0381 0.2500
vt 0.4043 0.2690 0.2500
vt 0.5000 0.0000 0.2500
vt 0.5000 0.2500 0.2500
vt 0.6913 0.0381 0.2500
vt 0.5957 0.2690 0.2500
vt 0.8536 0.1464 0.2500
vt 0.6768 0.3232 0.2500
vt 0.9619 0.3087 0.2500
vt 0.7310 0.4043 0.2500
vt 1.0000 0.5000 0.2500
vt 0.7500 0.5000 0.2500
vt 0.9619 0.6913 0.2500
vt 0.7310 0.5957 0.2500
vt 0.8536 0.8536 0.2500
vt 0.6768 0.6768 0.2500
vt 0.6913 0.9619 0.2500
vt 0.5957 0.7310 0.2500
vt 0.5000 0.5000 0.2500
# 67 texture coords

g Bulb_Base
usemtl DrkGry
s 2
f 1/1/1 2/2/2 3/3/2 4/4/1 
f 2/2/2 5/5/3 6/6/3 3/3/2 
f 5/5/3 7/7/4 8/8/4 6/6/3 
f 7/7/4 9/9/5 10/10/6 8/8/4 
f 9/11/5 11/12/7 12/13/7 10/14/6 
f 11/12/7 13/15/8 14/16/8 12/13/7 
f 13/15/8 15/17/9 16/18/9 14/16/8 
f 15/17/9 17/19/10 18/20/10 16/18/9 
f 17/19/10 19/21/11 20/22/11 18/20/10 
f 19/21/11 21/23/12 22/24/12 20/22/11 
f 21/23/12 23/25/13 24/26/13 22/24/12 
f 23/25/13 25/27/14 26/28/14 24/26/13 
f 25/27/14 27/29/15 28/30/15 26/28/14 
f 27/29/15 29/31/16 30/32/16 28/30/15 
f 29/31/16 31/33/17 32/34/17 30/32/16 
f 31/33/17 1/1/1 4/4/1 32/34/17 
s 1
f 4/35/18 3/36/18 33/37/18 34/38/18 
f 3/36/18 6/39/18 35/40/18 33/37/18 
f 6/39/18 8/41/18 36/42/18 35/40/18 
f 8/41/18 10/43/18 37/44/18 36/42/18 
f 10/43/18 12/45/18 38/46/18 37/44/18 
f 12/45/18 14/47/18 39/48/18 38/46/18 
f 14/47/18 16/49/18 40/50/18 39/48/18 
f 16/49/18 18/51/18 41/52/18 40/50/18 
f 18/51/18 20/53/18 42/54/18 41/52/18 
f 20/53/18 22/55/18 43/56/18 42/54/18 
f 22/55/18 24/57/18 44/58/18 43/56/18 
f 24/57/18 26/59/18 45/60/18 44/58/18 
f 26/59/18 28/61/18 46/62/18 45/60/18 
f 28/61/18 30/63/18 47/64/18 46/62/18 
f 30/63/18 32/65/18 48/66/18 47/64/18 
f 32/65/18 4/35/18 34/38/18 48/66/18 
f 34/38/18 33/37/18 49/67/18 
f 33/37/18 35/40/18 49/67/18 
f 35/40/18 36/42/18 49/67/18 
f 36/42/18 37/44/18 49/67/18 
f 37/44/18 38/46/18 49/67/18 
f 38/46/18 39/48/18 49/67/18 
f 39/48/18 40/50/18 49/67/18 
f 40/50/18 41/52/18 49/67/18 
f 41/52/18 42/54/18 49/67/18 
f 42/54/18 43/56/18 49/67/18 
f 43/56/18 44/58/18 49/67/18 
f 44/58/18 45/60/18 49/67/18 
f 45/60/18 46/62/18 49/67/18 
f 46/62/18 47/64/18 49/67/18 
f 47/64/18 48/66/18 49/67/18 
f 48/66/18 34/38/18 49/67/18 
f 2/2/19 1/1/19 50/1/19 51/2/19 
f 5/5/19 2/2/19 51/2/19 52/5/19 
f 7/7/19 5/5/19 52/5/19 53/7/19 
f 9/9/19 7/7/19 53/7/19 54/9/20 
f 11/12/20 9/11/19 54/11/20 55/12/20 
f 13/15/20 11/12/20 55/12/20 56/15/20 
f 15/17/20 13/15/20 56/15/20 57/17/20 
f 17/19/20 15/17/20 57/17/20 58/19/20 
f 19/21/18 17/19/20 58/19/20 59/21/18 
f 21/23/18 19/21/18 59/21/18 60/23/18 
f 23/25/18 21/23/18 60/23/18 61/25/18 
f 25/27/18 23/25/18 61/25/18 62/27/18 
f 27/29/21 25/27/18 62/27/18 63/29/21 
f 29/31/21 27/29/21 63/29/21 64/31/21 
f 31/33/21 29/31/21 64/31/21 65/33/21 
f 1/1/19 31/33/21 65/33/21 50/1/19 
s 2
f 51/2/2 50/1/1 66/1/1 67/2/2 
f 52/5/3 51/2/2 67/2/2 68/5/3 
f 53/7/4 52/5/3 68/5/3 69/7/4 
f 54/9/6 53/7/4 69/7/4 70/9/6 
f 55/12/7 54/11/6 70/11/6 71/12/7 
f 56/15/8 55/12/7 71/12/7 72/15/8 
f 57/17/9 56/15/8 72/15/8 73/17/9 
f 58/19/10 57/17/9 73/17/9 74/19/10 
f 59/21/11 58/19/10 74/19/10 75/21/11 
f 60/23/12 59/21/11 75/21/11 76/23/12 
f 61/25/13 60/23/12 76/23/12 77/25/13 
f 62/27/14 61/25/13 77/25/13 78/27/14 
f 63/29/15 62/27/14 78/27/14 79/29/15 
f 64/31/16 63/29/15 79/29/15 80/31/16 
f 65/33/17 64/31/16 80/31/16 81/33/17 
f 50/1/1 65/33/17 81/33/17 66/1/1 
# 64 polygons - 16 triangles

