# 3ds Max Wavefront OBJ Exporter v0.97b - (c)2007 guruware
# File Created: 05.02.2017 15:01:49

mtllib Switch_Base.mtl

#
# object Switch_Base
#

v  0.0521 0.0940 0.0623
v  0.0521 0.1266 0.0623
v  0.0521 0.1266 0.0740
v  0.0521 0.0940 0.0740
v  -0.0521 0.0940 0.0740
v  -0.0521 0.1266 0.0740
v  -0.0521 0.1266 0.0623
v  -0.0521 0.0940 0.0623
v  0.0237 0.0570 0.0740
v  -0.0237 0.0570 0.0740
v  -0.0237 0.0570 0.0623
v  0.0237 0.0570 0.0623
v  -0.0237 0.1266 0.0740
v  -0.0237 0.0940 0.0740
v  0.0237 0.0940 0.0740
v  0.0237 0.1266 0.0740
v  0.0237 0.1636 0.0623
v  -0.0237 0.1636 0.0623
v  -0.0237 0.1636 0.0740
v  0.0237 0.1636 0.0740
v  -0.0370 0.0570 0.0740
v  -0.0521 0.0570 0.0740
v  -0.0521 0.0570 0.0623
v  -0.0370 0.0570 0.0623
v  0.0370 0.0570 0.0623
v  0.0521 0.0570 0.0623
v  0.0521 0.0570 0.0740
v  0.0370 0.0570 0.0740
v  -0.0370 0.0940 0.0740
v  -0.0370 0.1266 0.0740
v  0.0370 0.1266 0.0740
v  0.0370 0.0940 0.0740
v  -0.0370 0.1636 0.0623
v  -0.0521 0.1636 0.0623
v  -0.0521 0.1636 0.0740
v  -0.0370 0.1636 0.0740
v  0.0370 0.1636 0.0740
v  0.0521 0.1636 0.0740
v  0.0521 0.1636 0.0623
v  0.0370 0.1636 0.0623
v  0.0521 0.1526 0.0623
v  0.0521 0.1526 0.0740
v  0.0521 0.0681 0.0740
v  0.0521 0.0681 0.0623
v  -0.0521 0.1526 0.0740
v  -0.0521 0.1526 0.0623
v  -0.0521 0.0681 0.0623
v  -0.0521 0.0681 0.0740
v  -0.0237 0.0681 0.0740
v  0.0237 0.0681 0.0740
v  0.0237 0.1526 0.0740
v  -0.0237 0.1526 0.0740
v  -0.0370 0.0681 0.0740
v  -0.0370 0.1526 0.0740
v  0.0370 0.1526 0.0740
v  0.0370 0.0681 0.0740
v  -0.0370 0.0940 0.0787
v  -0.0370 0.0681 0.0787
v  -0.0237 0.0681 0.0787
v  -0.0237 0.0940 0.0787
v  -0.0237 0.1266 0.0787
v  -0.0237 0.1526 0.0787
v  -0.0370 0.1526 0.0787
v  -0.0370 0.1266 0.0787
v  0.0370 0.1266 0.0787
v  0.0370 0.1526 0.0787
v  0.0237 0.1526 0.0787
v  0.0237 0.1266 0.0787
v  0.0237 0.0940 0.0787
v  0.0237 0.0681 0.0787
v  0.0370 0.0681 0.0787
v  0.0370 0.0940 0.0787
# 72 vertices

vn 1.0000 0.0000 0.0000
vn -1.0000 -0.0000 -0.0000
vn 0.0000 -1.0000 0.0000
vn 0.0000 -1.0000 -0.0000
vn -0.0000 0.0000 1.0000
vn -0.0000 1.0000 -0.0000
vn -0.0000 1.0000 0.0000
vn -0.0000 -1.0000 -0.0000
vn -0.0000 -0.0000 1.0000
vn 0.0000 1.0000 0.0000
vn 0.0000 0.0000 1.0000
vn 0.0000 -0.0000 1.0000
vn 1.0000 -0.0000 0.0000
vn 0.0000 1.0000 -0.0000
vn -1.0000 0.0000 0.0000
vn -1.0000 -0.0000 0.0000
vn -0.0000 -1.0000 0.0000
# 17 vertex normals

vt 1.0000 0.4051 0.0000
vt 1.0000 0.5949 0.0000
vt 0.0000 0.5949 0.0000
vt 0.0000 0.4051 0.0000
vt 1.0000 0.3360 0.0000
vt 1.0000 0.6640 0.0000
vt 0.0000 0.6640 0.0000
vt 0.0000 0.3360 0.0000
vt 0.5949 0.6640 0.0000
vt 0.4051 0.6640 0.0000
vt 0.4051 0.3360 0.0000
vt 0.5949 0.3360 0.0000
vt 1.0000 0.7864 0.0000
vt 1.0000 1.0000 0.0000
vt 0.0000 1.0000 0.0000
vt 0.0000 0.7864 0.0000
vt 0.0000 0.2136 0.0000
vt 0.0000 0.0000 0.0000
vt 1.0000 0.0000 0.0000
vt 1.0000 0.2136 0.0000
vt 0.5949 1.0000 0.0000
vt 0.4051 1.0000 0.0000
vt 0.4051 0.7864 0.0000
vt 0.5949 0.7864 0.0000
vt 0.4051 0.0000 0.0000
vt 0.5949 0.0000 0.0000
vt 0.5949 0.2136 0.0000
vt 0.4051 0.2136 0.0000
vt 1.0000 0.7848 0.0000
vt 0.0000 0.7848 0.0000
vt 0.0000 0.2152 0.0000
vt 1.0000 0.2152 0.0000
vt 0.2152 0.6640 0.0000
vt 0.2152 0.3360 0.0000
vt 0.7848 0.3360 0.0000
vt 0.7848 0.6640 0.0000
vt 0.2152 1.0000 0.0000
vt 0.2152 0.7864 0.0000
vt 0.7848 0.7864 0.0000
vt 0.7848 1.0000 0.0000
vt 0.7848 0.0000 0.0000
vt 0.7848 0.2136 0.0000
vt 0.2152 0.2136 0.0000
vt 0.2152 0.0000 0.0000
# 44 texture coords

g Switch_Base
usemtl medgray
s 2
f 1/1/1 2/2/1 3/3/1 4/4/1 
s 4
f 5/1/2 6/2/2 7/3/2 8/4/2 
s 8
f 9/5/3 10/6/4 11/7/3 12/8/3 
s 16
f 13/9/5 14/10/5 15/11/5 16/12/5 
s 32
f 17/5/6 18/6/7 19/7/6 20/8/6 
s 8
f 21/13/8 22/14/8 23/15/8 24/16/8 
f 25/17/3 26/18/3 27/19/3 28/20/3 
s 16
f 6/21/9 5/22/5 29/23/5 30/24/9 
f 4/25/9 3/26/9 31/27/9 32/28/9 
s 32
f 33/13/10 34/14/10 35/15/10 36/16/10 
f 37/17/6 38/18/6 39/19/6 40/20/6 
s 8
f 10/6/4 21/13/8 24/16/8 11/7/3 
f 12/8/3 25/17/3 28/20/3 9/5/3 
s 16
f 30/24/9 29/23/5 14/10/5 13/9/5 
f 32/28/9 31/27/9 16/12/5 15/11/5 
s 32
f 18/6/7 33/13/10 36/16/10 19/7/6 
f 20/8/6 37/17/6 40/20/6 17/5/6 
s 2
f 41/29/1 39/14/1 38/15/1 42/30/1 
f 2/2/1 41/29/1 42/30/1 3/3/1 
f 43/31/1 27/18/1 26/19/1 44/32/1 
f 4/4/1 43/31/1 44/32/1 1/1/1 
s 4
f 45/29/2 35/14/2 34/15/2 46/30/2 
f 6/2/2 45/29/2 46/30/2 7/3/2 
f 47/31/2 23/18/2 22/19/2 48/32/2 
f 8/4/2 47/31/2 48/32/2 5/1/2 
s 16
f 49/33/9 10/7/9 9/8/9 50/34/9 
f 14/10/5 49/33/9 50/34/9 15/11/5 
f 51/35/5 20/5/5 19/6/5 52/36/5 
f 16/12/5 51/35/5 52/36/5 13/9/5 
f 48/37/5 22/15/9 21/16/9 53/38/9 
f 5/22/5 48/37/5 53/38/9 29/23/5 
f 54/39/5 36/13/5 35/14/9 45/40/9 
f 30/24/9 54/39/5 45/40/9 6/21/9 
f 42/41/9 38/19/5 37/20/5 55/42/5 
f 3/26/9 42/41/9 55/42/5 31/27/9 
f 56/43/9 28/17/9 27/18/9 43/44/9 
f 32/28/9 56/43/9 43/44/9 4/25/9 
f 53/38/9 21/16/9 10/7/9 49/33/9 
f 57/23/11 58/38/5 59/33/5 60/10/5 
f 52/36/5 19/6/5 36/13/5 54/39/5 
f 61/9/12 62/36/9 63/39/5 64/24/9 
f 55/42/5 37/20/5 20/5/5 51/35/5 
f 65/27/5 66/42/9 67/35/9 68/12/9 
f 50/34/9 9/8/9 28/17/9 56/43/9 
f 69/11/5 70/34/5 71/43/5 72/28/5 
s off
f 29/23/2 53/38/2 58/38/2 57/23/2 
f 53/38/3 49/33/3 59/33/3 58/38/3 
f 49/33/1 14/10/1 60/10/1 59/33/1 
f 14/10/7 29/23/7 57/23/7 60/10/7 
f 54/39/2 30/24/2 64/24/2 63/39/2 
f 30/24/4 13/9/4 61/9/4 64/24/4 
f 13/9/1 52/36/1 62/36/1 61/9/1 
f 52/36/6 54/39/6 63/39/6 62/36/6 
f 31/27/13 55/42/13 66/42/13 65/27/13 
f 55/42/14 51/35/14 67/35/14 66/42/14 
f 51/35/15 16/12/15 68/12/15 67/35/15 
f 16/12/4 31/27/4 65/27/4 68/12/4 
f 56/43/13 32/28/13 72/28/13 71/43/13 
f 32/28/7 15/11/7 69/11/7 72/28/7 
f 15/11/16 50/34/16 70/34/16 69/11/16 
f 50/34/17 56/43/17 71/43/17 70/34/17 
# 61 polygons

