# 3ds Max Wavefront OBJ Exporter v0.97b - (c)2007 guruware
# File Created: 05.02.2017 14:06:13

mtllib Switch_Arms.mtl

#
# object Switch_Arms
#

v  1.4482 0.5953 -0.1481
v  1.4482 2.7284 -0.1481
v  1.4482 2.7284 0.2335
v  1.4482 0.5953 0.2335
v  -1.4482 2.7284 -0.1481
v  -1.4482 0.5953 -0.1481
v  -1.4482 0.5953 0.2335
v  -1.4482 2.7284 0.2335
v  0.9343 0.5953 -0.1481
v  0.9343 2.7284 -0.1481
v  -0.9343 2.7284 -0.1481
v  -0.9343 0.5953 -0.1481
v  0.9343 2.7284 0.2335
v  0.9343 0.5953 0.2335
v  -0.9343 0.5953 0.2335
v  -0.9343 2.7284 0.2335
v  0.9343 0.0087 -0.1481
v  1.4482 0.0087 -0.1481
v  1.4482 0.0087 0.2335
v  0.9343 0.0087 0.2335
v  -0.9343 0.0087 0.2335
v  -1.4482 0.0087 0.2335
v  -1.4482 0.0087 -0.1481
v  -0.9343 0.0087 -0.1481
v  1.3560 0.5032 -0.4125
v  1.3560 0.1008 -0.4125
v  1.0264 0.1008 -0.4125
v  1.0264 0.5032 -0.4125
v  -1.0264 0.5032 -0.4125
v  -1.0264 0.1008 -0.4125
v  -1.3560 0.1008 -0.4125
v  -1.3560 0.5032 -0.4125
v  1.0066 3.3154 -0.2561
v  -1.0066 3.3154 -0.2561
v  -1.0066 3.3154 0.3388
v  1.0066 3.3154 0.3388
v  -1.5602 3.3154 -0.2561
v  -1.5602 3.3154 0.3388
v  1.5602 3.3154 0.3388
v  1.5602 3.3154 -0.2561
v  -1.0066 2.6834 -0.2561
v  1.0066 2.6834 -0.2561
v  1.0066 2.6834 0.3388
v  -1.0066 2.6834 0.3388
v  1.5602 2.6834 -0.2561
v  1.5602 2.6834 0.3388
v  -1.5602 2.6834 0.3388
v  -1.5602 2.6834 -0.2561
v  0.1671 2.6086 0.0475
v  0.1182 2.6086 -0.0704
v  0.1182 4.0188 -0.0704
v  0.1671 4.0188 0.0475
v  0.0002 2.6086 -0.1193
v  0.0002 4.0188 -0.1193
v  -0.1178 2.6086 -0.0704
v  -0.1178 4.0188 -0.0704
v  -0.1667 2.6086 0.0475
v  -0.1667 4.0188 0.0475
v  -0.1178 2.6086 0.1655
v  -0.1178 4.0188 0.1655
v  0.0002 2.6086 0.2144
v  0.0002 4.0188 0.2144
v  0.1182 2.6086 0.1655
v  0.1182 4.0188 0.1655
v  0.1106 2.5805 0.0475
v  0.0783 2.5805 -0.0305
v  0.0002 2.5805 -0.0629
v  -0.0779 2.5805 -0.0305
v  -0.1102 2.5805 0.0475
v  -0.0779 2.5805 0.1256
v  0.0002 2.5805 0.1580
v  0.0783 2.5805 0.1256
v  0.0002 2.5736 0.0475
v  0.2243 3.7527 0.0475
v  0.1587 3.7527 -0.1110
v  0.2307 3.8710 -0.1831
v  0.3262 3.8710 0.0475
v  0.0002 3.7527 -0.1766
v  0.0002 3.8710 -0.2785
v  -0.1583 3.7527 -0.1110
v  -0.2303 3.8710 -0.1831
v  -0.2239 3.7527 0.0475
v  -0.3258 3.8710 0.0475
v  -0.1583 3.7527 0.2059
v  -0.2303 3.8710 0.2780
v  0.0002 3.7527 0.2716
v  0.0002 3.8710 0.3735
v  0.1587 3.7527 0.2059
v  0.2307 3.8710 0.2780
v  0.3652 5.0787 0.0475
v  0.2583 5.0787 -0.2107
v  0.1987 5.1267 -0.1510
v  0.2809 5.1267 0.0475
v  0.0002 5.0787 -0.3176
v  0.0002 5.1267 -0.2332
v  -0.2579 5.0787 -0.2107
v  -0.1983 5.1267 -0.1510
v  -0.3648 5.0787 0.0475
v  -0.2805 5.1267 0.0475
v  -0.2579 5.0787 0.3056
v  -0.1983 5.1267 0.2459
v  0.0002 5.0787 0.4125
v  0.0002 5.1267 0.3281
v  0.2583 5.0787 0.3056
v  0.1987 5.1267 0.2459
v  0.0002 5.1450 0.0475
v  0.1587 3.9201 -0.1110
v  0.2243 3.9201 0.0475
v  0.0002 3.9201 -0.1766
v  -0.1583 3.9201 -0.1110
v  -0.2239 3.9201 0.0475
v  -0.1583 3.9201 0.2059
v  0.0002 3.9201 0.2716
v  0.1587 3.9201 0.2059
v  0.1555 3.7337 0.0475
v  0.1100 3.7337 -0.0624
v  0.0002 3.7337 -0.1079
v  -0.1096 3.7337 -0.0624
v  -0.1551 3.7337 0.0475
v  -0.1096 3.7337 0.1573
v  0.0002 3.7337 0.2028
v  0.1100 3.7337 0.1573
v  1.0264 0.1008 -0.1481
v  1.3560 0.1008 -0.1481
v  1.0264 0.5032 -0.1481
v  1.3560 0.5032 -0.1481
v  -1.3560 0.5032 -0.1481
v  -1.3560 0.1008 -0.1481
v  -1.0264 0.5032 -0.1481
v  -1.0264 0.1008 -0.1481
# 130 vertices

vn 1.0000 0.0000 -0.0000
vn -1.0000 0.0000 -0.0000
vn 0.0000 0.0000 -1.0000
vn 0.0000 -0.0000 1.0000
vn 0.0000 -1.0000 -0.0000
vn 0.0000 1.0000 0.0000
vn 1.0000 0.0000 0.0000
vn 0.8340 -0.0000 -0.5518
vn 1.0000 -0.0000 -0.0000
vn -0.0000 -0.0000 -1.0000
vn -0.8340 -0.0000 -0.5518
vn -1.0000 0.0000 0.0000
vn -0.8340 0.0000 0.5518
vn 0.0000 0.0000 1.0000
vn -0.0000 0.0000 1.0000
vn 0.8340 0.0000 0.5518
vn 0.2784 -0.9358 -0.2161
vn 0.4465 -0.8948 -0.0000
vn 0.2862 -0.9582 -0.0000
vn 0.2317 -0.9659 -0.1152
vn -0.0000 -0.9624 -0.2717
vn 0.0000 -0.9797 -0.2006
vn -0.2784 -0.9358 -0.2161
vn -0.2317 -0.9659 -0.1152
vn -0.4465 -0.8948 -0.0000
vn -0.2862 -0.9582 -0.0000
vn -0.2784 -0.9358 0.2161
vn -0.2317 -0.9659 0.1152
vn 0.0000 -0.9624 0.2717
vn 0.0000 -0.9797 0.2006
vn 0.2784 -0.9358 0.2161
vn 0.2317 -0.9659 0.1152
vn 0.7577 -0.6526 0.0000
vn 0.6154 -0.7200 -0.3207
vn 0.7844 0.1582 -0.5998
vn 0.9828 0.1844 -0.0000
vn 0.0000 -0.8358 -0.5490
vn 0.0000 0.1213 -0.9926
vn -0.6154 -0.7200 -0.3207
vn -0.7844 0.1582 -0.5998
vn -0.7577 -0.6526 -0.0000
vn -0.9828 0.1844 0.0000
vn -0.6154 -0.7200 0.3207
vn -0.7844 0.1582 0.5998
vn 0.0000 -0.8358 0.5490
vn 0.0000 0.1213 0.9926
vn 0.6154 -0.7200 0.3207
vn 0.7844 0.1582 0.5998
vn 0.9075 0.4200 0.0000
vn 0.7354 0.4340 -0.5205
vn 0.2572 0.9578 -0.1287
vn 0.3167 0.9485 0.0000
vn -0.0000 0.4149 -0.9099
vn -0.0000 0.9743 -0.2254
vn -0.7354 0.4340 -0.5205
vn -0.2572 0.9578 -0.1287
vn -0.9075 0.4200 0.0000
vn -0.3167 0.9485 0.0000
vn -0.7354 0.4340 0.5205
vn -0.2572 0.9578 0.1287
vn -0.0000 0.4149 0.9099
vn -0.0000 0.9743 0.2254
vn 0.7354 0.4340 0.5205
vn 0.2572 0.9578 0.1287
vn -0.0000 1.0000 0.0000
vn 0.8340 -0.1524 -0.5303
vn 0.9927 -0.1207 -0.0000
vn 0.0000 -0.2102 -0.9777
vn -0.8340 -0.1524 -0.5303
vn -0.9927 -0.1207 0.0000
vn -0.8340 -0.1524 0.5303
vn 0.0000 -0.2102 0.9777
vn 0.8340 -0.1524 0.5303
vn 0.3417 0.9256 -0.1630
vn 0.4335 0.9011 -0.0000
vn 0.0000 0.9649 -0.2626
vn -0.3417 0.9256 -0.1630
vn -0.4335 0.9011 0.0000
vn -0.3417 0.9256 0.1630
vn 0.0000 0.9649 0.2626
vn 0.3417 0.9256 0.1630
vn 0.2655 -0.9621 -0.0622
vn 0.1122 -0.9818 -0.1533
vn -0.1122 -0.9818 -0.1533
vn -0.2655 -0.9621 -0.0622
vn -0.2655 -0.9621 0.0622
vn -0.1122 -0.9818 0.1533
vn 0.1122 -0.9818 0.1533
vn 0.2655 -0.9621 0.0622
# 89 vertex normals

vt 0.1774 0.0000 0.0000
vt 0.8226 0.0000 0.0000
vt 0.8226 1.0000 0.0000
vt 0.1774 1.0000 0.0000
vt 0.0000 0.8226 0.0000
vt 0.0000 0.1774 0.0000
vt 0.1774 0.1774 0.0000
vt 0.1774 0.8226 0.0000
vt 1.0000 0.1774 0.0000
vt 1.0000 0.8226 0.0000
vt 0.8226 0.8226 0.0000
vt 0.8226 0.1774 0.0000
vt 1.0000 0.0000 0.0000
vt 1.0000 1.0000 0.0000
vt 0.0000 1.0000 0.0000
vt 0.0000 0.0000 0.0000
vt 0.7500 0.0000 1.0000
vt 0.8750 0.0000 1.0000
vt 0.8750 1.0000 1.0000
vt 0.7500 1.0000 1.0000
vt 1.0000 0.0000 1.0000
vt 1.0000 1.0000 1.0000
vt 0.0000 0.0000 1.0000
vt 0.1250 0.0000 1.0000
vt 0.1250 1.0000 1.0000
vt 0.0000 1.0000 1.0000
vt 0.2500 0.0000 1.0000
vt 0.2500 1.0000 1.0000
vt 0.3750 0.0000 1.0000
vt 0.3750 1.0000 1.0000
vt 0.5000 0.0000 1.0000
vt 0.5000 1.0000 1.0000
vt 0.6250 0.0000 1.0000
vt 0.6250 1.0000 1.0000
vt 0.1464 0.8536 -0.2500
vt 0.5000 1.0000 -0.2500
vt 0.5000 0.7500 -0.2500
vt 0.3232 0.6768 -0.2500
vt 0.0000 0.5000 -0.2500
vt 0.2500 0.5000 -0.2500
vt 0.1464 0.1464 -0.2500
vt 0.3232 0.3232 -0.2500
vt 0.5000 0.0000 -0.2500
vt 0.5000 0.2500 -0.2500
vt 0.8536 0.1464 -0.2500
vt 0.6768 0.3232 -0.2500
vt 1.0000 0.5000 -0.2500
vt 0.7500 0.5000 -0.2500
vt 0.8536 0.8536 -0.2500
vt 0.6768 0.6768 -0.2500
vt 0.5000 0.5000 -0.2500
vt 0.8750 0.2500 1.0000
vt 0.7500 0.2500 1.0000
vt 1.0000 0.2500 1.0000
vt 0.1250 0.2500 1.0000
vt 0.0000 0.2500 1.0000
vt 0.2500 0.2500 1.0000
vt 0.3750 0.2500 1.0000
vt 0.5000 0.2500 1.0000
vt 0.6250 0.2500 1.0000
vt 0.5000 1.0000 0.2500
vt 0.1464 0.8536 0.2500
vt 0.3232 0.6768 0.2500
vt 0.5000 0.7500 0.2500
vt 0.0000 0.5000 0.2500
vt 0.2500 0.5000 0.2500
vt 0.1464 0.1464 0.2500
vt 0.3232 0.3232 0.2500
vt 0.5000 0.0000 0.2500
vt 0.5000 0.2500 0.2500
vt 0.8536 0.1464 0.2500
vt 0.6768 0.3232 0.2500
vt 1.0000 0.5000 0.2500
vt 0.7500 0.5000 0.2500
vt 0.8536 0.8536 0.2500
vt 0.6768 0.6768 0.2500
vt 0.5000 0.5000 0.2500
vt 0.8750 0.5000 1.0000
vt 0.7500 0.5000 1.0000
vt 1.0000 0.5000 1.0000
vt 0.1250 0.5000 1.0000
vt 0.0000 0.5000 1.0000
vt 0.2500 0.5000 1.0000
vt 0.3750 0.5000 1.0000
vt 0.5000 0.5000 1.0000
vt 0.6250 0.5000 1.0000
# 86 texture coords

g Switch_Arms
usemtl DrkGry
s 16
f 1/1/1 2/2/1 3/3/1 4/4/1 
s 64
f 5/1/2 6/2/2 7/3/2 8/4/2 
s 2
f 2/5/3 1/6/3 9/7/3 10/8/3 
f 6/9/3 5/10/3 11/11/3 12/12/3 
s 4
f 4/9/4 3/10/4 13/11/4 14/12/4 
f 8/5/4 7/6/4 15/7/4 16/8/4 
s 8
f 17/2/5 18/13/5 19/14/5 20/3/5 
f 21/4/5 22/15/5 23/16/5 24/1/5 
s 16
f 4/4/1 19/15/1 18/16/1 1/1/1 
s 64
f 6/2/2 23/13/2 22/14/2 7/3/2 
s 2
f 25/6/3 26/16/3 27/1/3 28/7/3 
f 29/12/3 30/2/3 31/13/3 32/9/3 
s 4
f 14/12/4 20/2/4 19/13/4 4/9/4 
f 7/6/4 22/16/4 21/1/4 15/7/4 
s off
f 14/12/2 13/11/2 10/8/2 9/7/2 
f 13/11/5 16/8/5 11/11/5 10/8/5 
f 16/8/1 15/7/1 12/12/1 11/11/1 
f 15/7/1 21/4/1 24/2/1 12/12/1 
f 20/2/2 14/12/2 9/7/2 17/2/2 
s 32
f 33/1/6 34/2/6 35/3/6 36/4/6 
f 34/2/6 37/13/6 38/14/6 35/3/6 
f 36/4/6 39/15/6 40/16/6 33/1/6 
s 2
f 41/11/3 34/3/3 33/4/3 42/8/3 
s 4
f 43/11/4 36/3/4 35/4/4 44/8/4 
s 16
f 45/2/1 40/13/1 39/14/1 46/3/1 
s 64
f 47/4/2 38/15/2 37/16/2 48/1/2 
s 2
f 42/8/3 33/4/3 40/15/3 45/5/3 
f 48/10/3 37/14/3 34/3/3 41/11/3 
s 4
f 46/10/4 39/14/4 36/3/4 43/11/4 
f 44/8/4 35/4/4 38/15/4 47/5/4 
s off
f 48/1/5 41/11/5 44/8/5 47/4/5 
f 41/11/5 42/8/5 43/11/5 44/8/5 
f 42/8/5 45/2/5 46/3/5 43/11/5 
usemtl Gry
s 8
f 49/17/7 50/18/8 51/19/8 52/20/9 
f 50/18/8 53/21/10 54/22/10 51/19/8 
f 53/23/10 55/24/11 56/25/11 54/26/10 
f 55/24/11 57/27/12 58/28/12 56/25/11 
f 57/27/12 59/29/13 60/30/13 58/28/12 
f 59/29/13 61/31/14 62/32/15 60/30/13 
f 61/31/14 63/33/16 64/34/16 62/32/15 
f 63/33/16 49/17/7 52/20/9 64/34/16 
s 1
f 50/35/17 49/36/18 65/37/19 66/38/20 
f 53/39/21 50/35/17 66/38/20 67/40/22 
f 55/41/23 53/39/21 67/40/22 68/42/24 
f 57/43/25 55/41/23 68/42/24 69/44/26 
f 59/45/27 57/43/25 69/44/26 70/46/28 
f 61/47/29 59/45/27 70/46/28 71/48/30 
f 63/49/31 61/47/29 71/48/30 72/50/32 
f 49/36/18 63/49/31 72/50/32 65/37/19 
f 66/38/20 65/37/19 73/51/5 
f 67/40/22 66/38/20 73/51/5 
f 68/42/24 67/40/22 73/51/5 
f 69/44/26 68/42/24 73/51/5 
f 70/46/28 69/44/26 73/51/5 
f 71/48/30 70/46/28 73/51/5 
f 72/50/32 71/48/30 73/51/5 
f 65/37/19 72/50/32 73/51/5 
usemtl Black
s 2
f 74/17/33 75/18/34 76/52/35 77/53/36 
f 75/18/34 78/21/37 79/54/38 76/52/35 
f 78/23/37 80/24/39 81/55/40 79/56/38 
f 80/24/39 82/27/41 83/57/42 81/55/40 
f 82/27/41 84/29/43 85/58/44 83/57/42 
f 84/29/43 86/31/45 87/59/46 85/58/44 
f 86/31/45 88/33/47 89/60/48 87/59/46 
f 88/33/47 74/17/33 77/53/36 89/60/48 
s 1
f 90/61/49 91/62/50 92/63/51 93/64/52 
f 91/62/50 94/65/53 95/66/54 92/63/51 
f 94/65/53 96/67/55 97/68/56 95/66/54 
f 96/67/55 98/69/57 99/70/58 97/68/56 
f 98/69/57 100/71/59 101/72/60 99/70/58 
f 100/71/59 102/73/61 103/74/62 101/72/60 
f 102/73/61 104/75/63 105/76/64 103/74/62 
f 104/75/63 90/61/49 93/64/52 105/76/64 
f 93/64/52 92/63/51 106/77/65 
f 92/63/51 95/66/54 106/77/65 
f 95/66/54 97/68/56 106/77/65 
f 97/68/56 99/70/58 106/77/65 
f 99/70/58 101/72/60 106/77/65 
f 101/72/60 103/74/62 106/77/65 
f 103/74/62 105/76/64 106/77/65 
f 105/76/64 93/64/52 106/77/65 
f 107/78/66 91/19/50 90/20/49 108/79/67 
f 109/80/68 94/22/53 91/19/50 107/78/66 
f 110/81/69 96/25/55 94/26/53 109/82/68 
f 111/83/70 98/28/57 96/25/55 110/81/69 
f 112/84/71 100/30/59 98/28/57 111/83/70 
f 113/85/72 102/32/61 100/30/59 112/84/71 
f 114/86/73 104/34/63 102/32/61 113/85/72 
f 108/79/67 90/20/49 104/34/63 114/86/73 
s 2
f 76/52/35 107/78/74 108/79/75 77/53/36 
f 79/54/38 109/80/76 107/78/74 76/52/35 
f 81/55/40 110/81/77 109/82/76 79/56/38 
f 83/57/42 111/83/78 110/81/77 81/55/40 
f 85/58/44 112/84/79 111/83/78 83/57/42 
f 87/59/46 113/85/80 112/84/79 85/58/44 
f 89/60/48 114/86/81 113/85/80 87/59/46 
f 77/53/36 108/79/75 114/86/81 89/60/48 
s off
f 75/18/82 74/17/82 115/17/82 116/18/82 
f 78/21/83 75/18/83 116/18/83 117/21/83 
f 80/24/84 78/23/84 117/23/84 118/24/84 
f 82/27/85 80/24/85 118/24/85 119/27/85 
f 84/29/86 82/27/86 119/27/86 120/29/86 
f 86/31/87 84/29/87 120/29/87 121/31/87 
f 88/33/88 86/31/88 121/31/88 122/33/88 
f 74/17/89 88/33/89 122/33/89 115/17/89 
usemtl DrkGry
f 18/16/3 17/1/3 123/1/3 124/16/3 
f 17/1/3 9/7/3 125/7/3 123/1/3 
f 9/7/3 1/6/3 126/6/3 125/7/3 
f 1/6/3 18/16/3 124/16/3 126/6/3 
f 23/13/3 6/9/3 127/9/3 128/13/3 
f 6/9/3 12/12/3 129/12/3 127/9/3 
f 12/12/3 24/2/3 130/2/3 129/12/3 
f 24/2/3 23/13/3 128/13/3 130/2/3 
f 124/16/5 123/1/5 27/1/5 26/16/5 
f 123/1/2 125/7/2 28/7/2 27/1/2 
f 125/7/6 126/6/6 25/6/6 28/7/6 
f 126/6/1 124/16/1 26/16/1 25/6/1 
f 128/13/2 127/9/2 32/9/2 31/13/2 
f 127/9/6 129/12/6 29/12/6 32/9/6 
f 129/12/1 130/2/1 30/2/1 29/12/1 
f 130/2/5 128/13/5 31/13/5 30/2/5 
# 105 polygons - 16 triangles

